# xmcd
#
# Track frame offsets: 
#        150
#        12787
#        28194
#        40290
#        50927
#        67695
#        80475
#        92604
#        105640
#        120720
#        133710
#        147070
#        158812
#        179200
#        191965
#        213307
#        227275
#        245402
#        258652
#        274727
#        292450
#        305895
#
# Disc length: 4305 seconds
#
# Revision: 4
# Processed by: cddbd v1.5.2PL0 Copyright (c) Steve Scherf et al.
# Submitted via: ExactAudioCopy v0.95b4
#
DISCID=4f10cf16
DTITLE=Conway Twitty - The Conway Twitty Collection [CD3]
DYEAR=1994
DGENRE=Country
TTITLE0=I've Already Loved You in My Mind
TTITLE1=The Grandest Lady of Them All
TTITLE2=Your Love Had Taken Me That High
TTITLE3=Boogie Grass Band
TTITLE4=Don't Take It Away
TTITLE5=I May Never Get to Heaven
TTITLE6=You Know Just What I'd Do (with Loretta Lynn)
TTITLE7=Happy Birthday Darlin'
TTITLE8=I'd Love to Lay You Down
TTITLE9=It's True Love (with Loretta Lynn)
TTITLE10=A Bridge That Just Won't Burn
TTITLE11=Lovin' What Your Lovin' Does to Me (with Loretta Lynn)
TTITLE12=Rest Your Love on Me
TTITLE13=Tight Fittin' Jeans
TTITLE14=Red Neckin' Love Makin' Night
TTITLE15=We Had It All
TTITLE16=The Clown
TTITLE17=Slow Hand
TTITLE18=The Rose
TTITLE19=Somebody's Needin' Somebody
TTITLE20=I Don't Know a Thing About Love
TTITLE21=Julia
EXTD=
EXTT0=
EXTT1=
EXTT2=
EXTT3=
EXTT4=
EXTT5=
EXTT6=
EXTT7=
EXTT8=
EXTT9=
EXTT10=
EXTT11=
EXTT12=
EXTT13=
EXTT14=
EXTT15=
EXTT16=
EXTT17=
EXTT18=
EXTT19=
EXTT20=
EXTT21=
PLAYORDER=
